<svg id="Layer_1" data-name="Layer 1" xmlns="http://www.w3.org/2000/svg" viewBox="0 0 481.21 341.28"><defs><style>.cls-1{fill:#e92529;}.cls-2{fill:#fff;}.cls-2,.cls-4{fill-rule:evenodd;}.cls-3{fill:#0d5ca8;}.cls-4{fill:#2daae1;}</style></defs><title>logo NM HONG DUCC</title><polygon class="cls-1" points="51.41 284.89 51.41 339.89 32.21 339.89 32.21 319.91 19.2 319.91 19.2 339.89 0 339.89 0 284.89 19.2 284.89 19.2 303.51 32.21 303.51 32.21 284.89 51.41 284.89"/><path class="cls-1" d="M154.7,422.11A28.84,28.84,0,1,0,183.54,451,28.84,28.84,0,0,0,154.7,422.11Zm.24,39.56c-5.3,0-9.61-4.86-9.61-10.86S149.64,440,154.94,440s9.61,4.87,9.61,10.86S160.25,461.67,154.94,461.67Z" transform="translate(-65.13 -138.54)"/><polygon class="cls-1" points="183.33 284.88 183.33 339.88 164.15 339.88 164.13 339.84 146.25 313.35 146.25 339.88 127.05 339.88 127.05 284.88 146.25 284.88 164.13 311.38 164.13 284.88 183.33 284.88"/><polygon class="cls-1" points="164.15 339.88 164.13 339.88 164.13 339.84 164.15 339.88"/><path class="cls-1" d="M314.36,451a28.83,28.83,0,1,1-4-14.73l-16.07,5.92a9.84,9.84,0,0,0-7.8-4.13c-5.82,0-10.55,5.68-10.55,12.7s4.73,12.7,10.55,12.7a10.08,10.08,0,0,0,8.44-5.07H285V445.59h28.89A29,29,0,0,1,314.36,451Z" transform="translate(-65.13 -138.54)"/><path class="cls-1" d="M369.41,423.42H345.36v20.66H339.2v12.28h6.16v22.06h24.05s28.16-1.53,28.16-27.44S369.41,423.42,369.41,423.42Zm0,40h-6.15v-7.08h7.53V444.08h-7.53V438h6.15c5.83,0,10.56,5.69,10.56,12.71S375.24,463.44,369.41,463.44Z" transform="translate(-65.13 -138.54)"/><path class="cls-1" d="M456,439.07v17.59a25.13,25.13,0,0,1-50.1,0V423.43h19.19v33.23a5.87,5.87,0,1,0,11.73,0V423.43H456v12.19c1.61-.4,4.12-2.57,4.12-12.19h5.58S466.28,437.93,456,439.07Z" transform="translate(-65.13 -138.54)"/><path class="cls-1" d="M484.87,450.81c0,6,5.42,10.86,12.12,10.86a12.52,12.52,0,0,0,9.81-4.49v19.87a28.85,28.85,0,1,1,0-52.19v19.59A12.55,12.55,0,0,0,497,440C490.29,440,484.87,444.82,484.87,450.81Z" transform="translate(-65.13 -138.54)"/><polygon class="cls-1" points="97.64 280.68 92.93 280.68 88.88 276.11 84.82 280.68 80.11 280.68 84.82 271.55 92.93 271.55 97.64 280.68"/><polygon class="cls-1" points="103.72 272.89 99.01 263.76 90.91 263.76 99.01 272.89 103.72 272.89"/><polygon class="cls-1" points="362.68 280.06 367.38 270.92 375.49 270.92 367.38 280.06 362.68 280.06"/><path class="cls-1" d="M537.68,437.67a8.66,8.66,0,1,1,8.65-8.66A8.67,8.67,0,0,1,537.68,437.67Zm0-16.63a8,8,0,1,0,8,8A8,8,0,0,0,537.68,421Z" transform="translate(-65.13 -138.54)"/><path class="cls-1" d="M538.67,429.64a2.77,2.77,0,0,0,2.43-2.79c0-2.08-1.6-2.8-3.78-2.8h-3.38V434h1.4v-4.18h1.91l2.6,4.18h1.56Zm-3.33-4.57h1.78c1.68,0,2.6.48,2.6,1.78s-.92,1.9-2.6,1.9h-1.78Z" transform="translate(-65.13 -138.54)"/><path class="cls-2" d="M281.5,140.88A128.69,128.69,0,1,1,152.81,269.57,128.69,128.69,0,0,1,281.5,140.88" transform="translate(-65.13 -138.54)"/><path class="cls-3" d="M373.82,176.79a130.57,130.57,0,1,0,38.25,92.32A130.12,130.12,0,0,0,373.82,176.79ZM193,180.63A125.18,125.18,0,0,1,392,327.88c-89.7,31.7-145.79-40.85-220.92.29A125.13,125.13,0,0,1,193,180.63Z" transform="translate(-65.13 -138.54)"/><path class="cls-4" d="M314.18,165.33a2.76,2.76,0,0,0-1.76,2.17,3.21,3.21,0,0,0,3.11,3.24c1.9.22,3.59-.88,3.77-2.45a3.09,3.09,0,0,0-2.54-3.13c-5.55-4.63-11.19-5-16.89-3.27,4.89-.28,9.8-.84,14.31,3.44m-15.31-2.4c-31.23-4.21-58.66,7.63-87.64,28.69,26.28-16.94,50.89-28.88,85.77-26.5C297.25,164.61,298.62,163.44,298.87,162.93Zm-42.5-5.42c-3.08-4.72-6.11-6.76-10.67-9.11.72.94,1.45,1.87,2.18,2.81l-3.08-.71,2.53,2.85-3.05-.5c.17.35.35.71.53,1.06H243.5l1.05,1.32-1.86-.41c.2.52.42,1.15.61,1.67-.71.24-1.78-.37-2.49-.14.36.23.9,1,1.26,1.25-.76.23-1.52-.44-2.28-.21.36.24.65,1,1,1.27-.43.18-1.52.09-1.94.28.21.17,1.14.68,1.35.86-.32.34-1.7.31-2,.66.18.31.94.83,1.12,1.13-.42,1-1.42,1.86-1.84,2.9C242.2,162.06,246.3,159.59,256.37,157.51Zm-3.55,24.17a120.89,120.89,0,0,0-26.12,7.59c4-.77,9.62-2.63,11.59-1.32a6.07,6.07,0,0,1-1.23,2.59,7,7,0,0,0,3.33-2.54l.61,1.68a6.2,6.2,0,0,0,3.8-1.37,1.93,1.93,0,0,1-.63,1.94C248.84,191.32,251.4,185.31,252.82,181.68Zm13.54-2.27a5.51,5.51,0,0,1-3.4,2.85,5.35,5.35,0,0,0,3.29.15c.26.26,0,1.62-.65,2.12a4.48,4.48,0,0,0,2.67-1.08,7.72,7.72,0,0,1-.73,2.3,4.77,4.77,0,0,0,2.28-1.71,4.32,4.32,0,0,1-.3,2.57,17.86,17.86,0,0,0,4.75-8C271.64,178.85,269,179.1,266.36,179.41Zm48.54-13.55a1.25,1.25,0,1,1,.12,2.49,1.25,1.25,0,0,1-.12-2.49Zm9.41,2.64C315,158.06,288.08,153,267.72,156c-27.16,4.4-46,16.45-61.25,32.38-1.68,1.45-4.29,7.32,5.08,5.28-8.52,3.72-9.16-1.93-6.88-4.12-9.51,3.17-18.7,6.54-24.33,12,3.6,1.28,7.9,1.32,13,.05-.29,1.62-.57,3.24-.86,4.86,1.9-1.73,3.32-3.64,6.82-4.76a27.57,27.57,0,0,0-1.35,16.76c3.8-5.1,8.64-9.79,14.07-19.51,16.66-20,65-22.2,90.47-23-3-2.39-4-3.38-5.16-7.07,3.85,6.36,7.55,6.49,9.15,6.44,7.84,0,13.34-1,16-3.25a1.83,1.83,0,0,0-.3-.62c-.09-.15-1.45-.28-1.46-.4a6.13,6.13,0,0,0,2-.32C323.83,170.1,324,169.11,324.31,168.5Z" transform="translate(-65.13 -138.54)"/><path class="cls-4" d="M379.29,207.13a2.52,2.52,0,0,0-2.1,1.44A3.21,3.21,0,0,0,383,211a2.8,2.8,0,0,0-1.41-3.39c-3.67-5.47-8.51-7.23-13.93-7.18,4.34,1,8.78,1.77,11.63,6.67m-12.78-6c-26.23-11.69-53.24-8.36-84,2.63,27.32-8.08,51.89-12.22,81.78-1.21C364.67,202.16,366.16,201.5,366.51,201.12Zm-35.77-15.64c-1.49-4.91-3.61-7.47-7-10.69.4,1,.79,2,1.19,3l-2.51-1.41c.49,1.05,1,2.1,1.48,3.14l-2.54-1.22c.06.36.13.71.19,1.07l-1.14-.34c.19.48.39,1,.58,1.43l-1.52-.84c0,.51.07,1.12.11,1.62-.69,0-1.46-.78-2.15-.76.26.29.53,1.13.78,1.42-.72,0-1.21-.78-1.94-.78.26.31.31,1.07.56,1.37-.42.06-1.35-.3-1.76-.25.14.21.82.89,1,1.1-.37.22-1.57-.16-1.95.06.08.31.61,1,.69,1.28-.63.8-1.71,1.26-2.35,2.06A55.55,55.55,0,0,1,330.74,185.48Zm-9.29,20.23a110.35,110.35,0,0,0-24.78-.06c3.72.36,9.08.17,10.46,1.82a5.38,5.38,0,0,1-1.73,1.95,6.29,6.29,0,0,0,3.56-1.37c0,.54.07,1.09.1,1.63a5.69,5.69,0,0,0,3.68-.23,1.75,1.75,0,0,1-1.05,1.54C315.5,213.12,319.27,208.52,321.45,205.71Zm12.42,1.49a5,5,0,0,1-3.7,1.62,4.85,4.85,0,0,0,2.83,1c.16.29-.43,1.41-1.11,1.69a4.2,4.2,0,0,0,2.61-.26,7.16,7.16,0,0,1-1.22,1.82,4.32,4.32,0,0,0,2.43-.91,4,4,0,0,1-.92,2.17,16.22,16.22,0,0,0,6.2-5.79C338.63,208.05,336.26,207.6,333.87,207.2Zm45.91.58a1.14,1.14,0,1,1-1.37.83A1.14,1.14,0,0,1,379.78,207.78Zm7.55,4.71c-5.49-11.51-27.7-22.83-46.27-25.45-24.87-3.11-44.38,2.61-61.84,12.62-1.85.84-5.63,5.31,3.08,5.92-8.4,1.07-7.51-4-5-5.36-9.12.34-18,.92-24.36,4.29,2.82,2,6.58,3.18,11.33,3.37-.66,1.34-1.33,2.68-2,4,2.1-1,3.83-2.33,7.18-2.41A25.16,25.16,0,0,0,264,223.8c4.64-3.49,10.07-6.35,17.31-13.46,19.69-13.24,62.51-2.76,85,3.07-2-2.85-2.66-4-2.71-7.5,1.75,6.55,4.95,7.61,6.36,8,6.86,2,11.93,2.49,14.81,1.25a1.76,1.76,0,0,0-.11-.62c0-.15-1.2-.62-1.17-.73a5.24,5.24,0,0,0,1.84.24C386.5,213.77,386.87,212.94,387.33,212.49Z" transform="translate(-65.13 -138.54)"/><path class="cls-1" d="M260.36,298.83c1.81,0,2.88-.55,3.22-1.66l20.81-64.48a.9.9,0,0,0,.17-.42c0-.92-.73-1.39-2.2-1.39H250c-1.8,0-2.87.6-3.21,1.81L238,260.06c-.45,1.21-1.53,1.81-3.22,1.81H221.26c-1.47,0-2.2-.46-2.2-1.39q0-3.48,4.49-14.31t4.48-13.9c0-.92-.68-1.39-2-1.39H184.19c-1,0-1.52.23-1.52.7q0,.4,2.88,2.64t2.88,3.89v.69l-19,58.37v.41c0,.84.73,1.25,2.2,1.25H204c1.69,0,2.76-.55,3.21-1.66l8.8-27.38c.34-1.2,1.41-1.81,3.22-1.81h13.54c1.35,0,2,.47,2,1.39v.42L226,297.17a.51.51,0,0,0-.17.41c0,.84.73,1.25,2.2,1.25Z" transform="translate(-65.13 -138.54)"/><path class="cls-1" d="M388.91,233.65A20,20,0,0,0,378,230.89H296.06c-1,0-1.52.23-1.52.68s1,1.16,2.89,2.65,2.89,2.77,2.89,3.9v.68L292.46,263H280.55l-1.82,5.62h11.88l-9.26,28.52v.39c0,.86.72,1.28,2.21,1.28h72.6a30,30,0,0,0,14.47-3.63q6.71-3.62,8.22-8.75l14-43.23a10.22,10.22,0,0,0,.33-2.5C393.23,237.88,391.8,235.5,388.91,233.65Zm-32.24,5.15-16.76,52.1c-.45,1.22-1.52,1.82-3.21,1.82H323.15c-1.46,0-2.2-.45-2.2-1.4a1.24,1.24,0,0,0,.06-.42l7.23-22.24H338l1.82-5.62h-9.79L338,238.8c.32-1.1,1.39-1.66,3.21-1.66h13.49c1.46,0,2.2.41,2.2,1.25A.48.48,0,0,1,356.67,238.8Z" transform="translate(-65.13 -138.54)"/></svg>